<svg xmlns="http://www.w3.org/2000/svg" xml:space="preserve" width="66" height="66"><path fill="#516266" d="M4.898 53.767a.933.933 0 0 1-.77-1.064L12.077 3.23a.933.933 0 0 1 1.064-.77l49.471 7.949a.931.931 0 0 1 .77 1.064l-7.949 49.471a.931.931 0 0 1-1.064.771L4.898 53.767z"/><path fill="#FFD629" d="M15.628 62.339a.877.877 0 0 1-1.056-.65L3.661 15.628a.878.878 0 0 1 .65-1.055l46.061-10.91a.875.875 0 0 1 1.055.65L62.34 50.372a.883.883 0 0 1-.652 1.057l-46.06 10.91z"/><path fill="#FFC200" d="M49.994 2.069a2.514 2.514 0 0 1 3.027 1.865L63.93 49.993a2.512 2.512 0 0 1-1.864 3.027L16.005 63.93a2.512 2.512 0 0 1-3.026-1.865"/><path d="M26.993 30.991a3.487 3.487 0 0 0-2.079 1.441 2 2 0 0 0-1.656-.348 2.01 2.01 0 0 0-1.227.873 3.234 3.234 0 0 0-1.248-.293 2.485 2.485 0 0 0-2.822-1.355 2.447 2.447 0 0 0-1.05.549 1.527 1.527 0 0 0-1.582-.957c-.021-.154-.025-.307-.062-.463a4.092 4.092 0 0 0-1.188-2.045 1.465 1.465 0 0 0-1.211-2.606c-.02.004-.037.014-.057.02-.013-.082-.013-.162-.031-.244a3.784 3.784 0 0 0-7.366 1.744 3.769 3.769 0 0 0 2.031 2.516 4.105 4.105 0 0 0-.207 2.52c.346 1.461 1.435 2.539 2.767 2.965a5.215 5.215 0 0 0-.255 3.201 5.249 5.249 0 0 0 10.028.617 3.265 3.265 0 0 0 1.654.049 3.296 3.296 0 0 0 2.531-3.146c.074-.01.147-.012.22-.029.147-.035.287-.086.42-.15a3.51 3.51 0 0 0 6.614-2.252 3.508 3.508 0 0 0-4.224-2.607zm31.552-3.73-1.425-6.016a4.847 4.847 0 0 0-2.402-.955 5.024 5.024 0 0 0 .77-4.037 5.044 5.044 0 0 0-6.072-3.746 5.042 5.042 0 0 0-3.746 6.07c.007.033.017.057.025.088a4.497 4.497 0 0 0-3.041 4.793 1.78 1.78 0 0 0-.768.01 1.8 1.8 0 0 0-1.382 1.727c-1.95.789-3.095 2.887-2.595 4.996a4.327 4.327 0 0 0 4.374 3.326 3.673 3.673 0 0 0 7 .297 5.126 5.126 0 0 0 5.104-1.615 2.83 2.83 0 0 0 2.923 1.07 2.832 2.832 0 0 0 2.127-2.24l-.523-2.217a2.837 2.837 0 0 0-.865-.75c.193-.252.356-.52.496-.801z" fill="#FFF"/><path d="M27.262 32.12a3.462 3.462 0 0 0-2.08 1.441 1.993 1.993 0 0 0-2.882.525 3.287 3.287 0 0 0-1.25-.295 2.49 2.49 0 0 0-2.822-1.355 2.444 2.444 0 0 0-1.048.549 1.528 1.528 0 0 0-1.584-.955c-.018-.152-.024-.309-.062-.461a4.104 4.104 0 0 0-1.188-2.051c.458-.338.693-.924.555-1.514a1.47 1.47 0 0 0-1.765-1.09c-.021.006-.036.016-.056.021-.015-.082-.015-.162-.034-.244a3.783 3.783 0 0 0-7.363 1.744 3.766 3.766 0 0 0 2.031 2.516 4.092 4.092 0 0 0-.209 2.52 4.111 4.111 0 0 0 2.769 2.965 5.219 5.219 0 0 0-.257 3.199 5.248 5.248 0 0 0 10.029.617 3.262 3.262 0 0 0 1.653.049 3.303 3.303 0 0 0 2.534-3.145c.072-.01.145-.01.219-.029.147-.035.286-.09.417-.152a3.513 3.513 0 0 0 4.008 1.977 3.513 3.513 0 0 0 2.608-4.227 3.508 3.508 0 0 0-4.223-2.605zm31.55-3.732-1.425-6.014a4.856 4.856 0 0 0-2.402-.957 5.038 5.038 0 0 0 .769-4.037 5.044 5.044 0 1 0-9.816 2.328c.004.027.015.055.023.086a4.496 4.496 0 0 0-3.04 4.791 1.802 1.802 0 0 0-2.152 1.739c-1.947.789-3.093 2.889-2.594 4.996a4.329 4.329 0 0 0 4.375 3.326 3.678 3.678 0 0 0 4.392 2.621 3.677 3.677 0 0 0 2.608-2.326 5.1 5.1 0 0 0 2.414.014 5.135 5.135 0 0 0 2.69-1.627 2.824 2.824 0 0 0 5.051-1.172l-.525-2.216a2.84 2.84 0 0 0-.863-.752c.192-.25.356-.517.495-.8z" fill="#FFF5CC"/><path fill="#00ADDB" d="m10.27 40.42 46.843-11.096 2.389 10.084-46.843 11.096z"/><path fill="#E8E8E8" d="M49.994 2.069 3.934 12.981a2.51 2.51 0 0 0-1.865 3.025L12.98 62.065a2.511 2.511 0 0 0 3.026 1.865l46.061-10.91a2.51 2.51 0 0 0 1.864-3.027L53.021 3.935a2.514 2.514 0 0 0-3.027-1.866zm.016 3.36 7.09 29.92-44.583 10.562-7.09-29.92L50.01 5.429z"/><path fill="#F2F2F2" d="m16.006 63.931 2.772-.656 13.619-22.072-19.881 4.709-7.09-29.92L50.01 5.429l1.236 5.217 2.431-3.938-.655-2.773a2.513 2.513 0 0 0-3.027-1.865L3.934 12.981a2.51 2.51 0 0 0-1.865 3.025L12.98 62.065a2.512 2.512 0 0 0 3.026 1.866z"/><path fill="#19CBF4" d="m47.272 31.649-1.237.293-12.688-10.654c-.595-.496-1.605-.254-1.916.457l-4.82 11.184-2.387-2.004c-.595-.498-1.608-.256-1.916.455l-2.972 6.891-1.289.305a1.227 1.227 0 0 0 .567 2.389l1.548-.365c.213.004.421-.049.606-.145l4.969-1.178c.096 0 .188 0 .28-.021.102-.023.199-.064.293-.113l3.355-.795c.105.002.21-.006.315-.031.09-.02.174-.064.258-.105l15.5-3.672a1.21 1.21 0 0 0 .605-.145l1.493-.354a1.229 1.229 0 0 0-.564-2.392z"/><path fill="#00ADDB" d="m47.272 31.649-1.237.293-12.688-10.654c-.595-.496-1.605-.254-1.916.457l-2.524 13.031-4.683-3.852c-.595-.498-1.608-.256-1.916.455l-1.062 6.436-3.198.76a1.227 1.227 0 0 0 .567 2.389l1.548-.365c.213.004.421-.049.606-.145l4.969-1.178c.096 0 .188 0 .28-.021.102-.023.199-.064.293-.113l3.355-.795c.105.002.21-.006.315-.031.09-.02.174-.064.258-.105l15.5-3.672a1.21 1.21 0 0 0 .605-.145l1.493-.354a1.23 1.23 0 0 0 .912-1.479 1.23 1.23 0 0 0-1.477-.912z"/><circle cx="23.228" cy="13.91" r=".238" fill="#EAE4BE"/><path fill="#EAE4BE" d="M27.1 14.431a.546.546 0 1 1-.655-.406.549.549 0 0 1 .655.406z"/><circle cx="29.433" cy="11.565" r=".136" fill="#EAE4BE"/><circle cx="32.523" cy="16.473" r=".579" fill="#EAE4BE"/><circle cx="23.477" cy="17.179" r=".205" fill="#EAE4BE"/><circle cx="27.25" cy="17.582" r=".443" fill="#EAE4BE"/><circle cx="18.546" cy="15.441" r=".307" fill="#EAE4BE"/><path fill="#E8E8E8" d="m12.514 45.886 46.275-10.962.543 2.29-46.276 10.96z"/><circle cx="21.219" cy="22.708" r="3.431" fill="#FFFB5F"/><path d="m20.233 17.671.987-.986.985.985-.987.986zm0 10.051.987-.986.985.985-.987.986zM24.076 18.446h1.394v1.393h-1.394zm-7.107 7.109h1.394v1.393h-1.394zM26.245 21.714l.985.987-.985.984-.985-.987zm-10.051-.002.984.986-.985.984-.984-.986zM24.076 25.556h1.393v1.393h-1.393zm-7.107-7.109h1.393v1.395h-1.393z" fill="#FFFB5F"/></svg>